<svg width="21" height="22" viewBox="0 0 21 22" fill="none" xmlns="http://www.w3.org/2000/svg">
<path d="M9.73444 11C12.4959 11 14.7344 8.76142 14.7344 6C14.7344 3.23858 12.4959 1 9.73444 1C6.97301 1 4.73444 3.23858 4.73444 6C4.73444 8.76142 6.97301 11 9.73444 11Z" stroke="#5AA1C9" stroke-width="2"/>
<path d="M14.7344 21H3.00044C2.71682 21.0001 2.43643 20.9398 2.17788 20.8232C1.91933 20.7066 1.68854 20.5364 1.50081 20.3238C1.31309 20.1112 1.17272 19.8611 1.08904 19.5901C1.00536 19.3191 0.980267 19.0334 1.01544 18.752L1.40544 15.628C1.49613 14.9022 1.84885 14.2346 2.39727 13.7506C2.94568 13.2667 3.65201 12.9997 4.38344 13H4.73444M16.7344 12V18M13.7344 15H19.7344" stroke="#5AA1C9" stroke-width="2" stroke-linecap="round" stroke-linejoin="round"/>
</svg>
