<svg width="20" height="20" viewBox="0 0 20 20" fill="none" xmlns="http://www.w3.org/2000/svg">
<path d="M10 0.375C7.45682 0.405683 5.02645 1.42959 3.22802 3.22802C1.42959 5.02645 0.405683 7.45682 0.375 10C0.405683 12.5432 1.42959 14.9735 3.22802 16.772C5.02645 18.5704 7.45682 19.5943 10 19.625C12.5432 19.5943 14.9735 18.5704 16.772 16.772C18.5704 14.9735 19.5943 12.5432 19.625 10C19.5943 7.45682 18.5704 5.02645 16.772 3.22802C14.9735 1.42959 12.5432 0.405683 10 0.375ZM15.5 10.6875H10.6875V15.5H9.3125V10.6875H4.5V9.3125H9.3125V4.5H10.6875V9.3125H15.5V10.6875Z" fill="#5AA1C9"/>
</svg>
