<svg width="22" height="29" viewBox="0 0 22 29" fill="none" xmlns="http://www.w3.org/2000/svg">
<path d="M10 16.7009H6.625C6.5587 16.7009 6.49511 16.7282 6.44822 16.7767C6.40134 16.8253 6.375 16.8911 6.375 16.9598V18.5134C6.375 18.5821 6.40134 18.6479 6.44822 18.6965C6.49511 18.745 6.5587 18.7723 6.625 18.7723H10V22.2679C10 22.3365 10.0263 22.4024 10.0732 22.4509C10.1201 22.4995 10.1837 22.5268 10.25 22.5268H11.75C11.8163 22.5268 11.8799 22.4995 11.9268 22.4509C11.9737 22.4024 12 22.3365 12 22.2679V18.7723H15.375C15.4413 18.7723 15.5049 18.745 15.5518 18.6965C15.5987 18.6479 15.625 18.5821 15.625 18.5134V16.9598C15.625 16.8911 15.5987 16.8253 15.5518 16.7767C15.5049 16.7282 15.4413 16.7009 15.375 16.7009H12V13.2054C12 13.1367 11.9737 13.0708 11.9268 13.0223C11.8799 12.9737 11.8163 12.9464 11.75 12.9464H10.25C10.1837 12.9464 10.1201 12.9737 10.0732 13.0223C10.0263 13.0708 10 13.1367 10 13.2054V16.7009ZM21.7062 7.27266C21.8937 7.46685 22 7.72902 22 8.00413V27.9643C22 28.5372 21.5531 29 21 29H1C0.446875 29 0 28.5372 0 27.9643V1.03571C0 0.462835 0.446875 0 1 0H14.2719C14.5375 0 14.7938 0.110045 14.9813 0.304241L21.7062 7.27266ZM19.6938 8.47991L13.8125 2.38862V8.47991H19.6938Z" fill="#5AA1C9"/>
</svg>
