<svg width="23" height="23" viewBox="0 0 23 23" fill="none" xmlns="http://www.w3.org/2000/svg">
<path d="M11.5 23C14.55 23 17.4751 21.7884 19.6317 19.6317C21.7884 17.4751 23 14.55 23 11.5C23 8.45001 21.7884 5.52494 19.6317 3.36827C17.4751 1.2116 14.55 0 11.5 0C8.45001 0 5.52494 1.2116 3.36827 3.36827C1.2116 5.52494 0 8.45001 0 11.5C0 14.55 1.2116 17.4751 3.36827 19.6317C5.52494 21.7884 8.45001 23 11.5 23V23ZM6.46875 12.2188C6.27813 12.2188 6.09531 12.143 5.96052 12.0082C5.82573 11.8734 5.75 11.6906 5.75 11.5C5.75 11.3094 5.82573 11.1266 5.96052 10.9918C6.09531 10.857 6.27813 10.7812 6.46875 10.7812H14.7962L11.7099 7.69637C11.643 7.62955 11.59 7.55021 11.5539 7.4629C11.5177 7.37559 11.4991 7.28201 11.4991 7.1875C11.4991 7.09299 11.5177 6.99941 11.5539 6.9121C11.59 6.82479 11.643 6.74545 11.7099 6.67863C11.7767 6.6118 11.856 6.55879 11.9433 6.52262C12.0307 6.48646 12.1242 6.46784 12.2188 6.46784C12.3133 6.46784 12.4068 6.48646 12.4942 6.52262C12.5815 6.55879 12.6608 6.6118 12.7276 6.67863L17.0401 10.9911C17.1071 11.0579 17.1602 11.1372 17.1964 11.2245C17.2326 11.3118 17.2513 11.4055 17.2513 11.5C17.2513 11.5945 17.2326 11.6882 17.1964 11.7755C17.1602 11.8628 17.1071 11.9421 17.0401 12.0089L12.7276 16.3214C12.5927 16.4563 12.4096 16.5322 12.2188 16.5322C12.0279 16.5322 11.8448 16.4563 11.7099 16.3214C11.5749 16.1864 11.4991 16.0034 11.4991 15.8125C11.4991 15.6216 11.5749 15.4386 11.7099 15.3036L14.7962 12.2188H6.46875Z" fill="#606060"/>
</svg>
