<svg width="23" height="23" viewBox="0 0 23 23" fill="none" xmlns="http://www.w3.org/2000/svg">
<g clip-path="url(#clip0_2_754)">
<path d="M11.5 0C8.45001 0 5.52494 1.2116 3.36827 3.36827C1.2116 5.52494 0 8.45001 0 11.5C0 14.55 1.2116 17.4751 3.36827 19.6317C5.52494 21.7884 8.45001 23 11.5 23C14.55 23 17.4751 21.7884 19.6317 19.6317C21.7884 17.4751 23 14.55 23 11.5C23 8.45001 21.7884 5.52494 19.6317 3.36827C17.4751 1.2116 14.55 0 11.5 0V0ZM16.5312 10.7812C16.7219 10.7812 16.9047 10.857 17.0395 10.9918C17.1743 11.1266 17.25 11.3094 17.25 11.5C17.25 11.6906 17.1743 11.8734 17.0395 12.0082C16.9047 12.143 16.7219 12.2188 16.5312 12.2188H8.20381L11.2901 15.3036C11.357 15.3705 11.41 15.4498 11.4461 15.5371C11.4823 15.6244 11.5009 15.718 11.5009 15.8125C11.5009 15.907 11.4823 16.0006 11.4461 16.0879C11.41 16.1752 11.357 16.2545 11.2901 16.3214C11.2233 16.3882 11.144 16.4412 11.0567 16.4774C10.9693 16.5135 10.8758 16.5322 10.7812 16.5322C10.6867 16.5322 10.5932 16.5135 10.5058 16.4774C10.4185 16.4412 10.3392 16.3882 10.2724 16.3214L5.95988 12.0089C5.89294 11.9421 5.83983 11.8628 5.8036 11.7755C5.76737 11.6882 5.74871 11.5945 5.74871 11.5C5.74871 11.4055 5.76737 11.3118 5.8036 11.2245C5.83983 11.1372 5.89294 11.0579 5.95988 10.9911L10.2724 6.67863C10.4073 6.54366 10.5904 6.46784 10.7812 6.46784C10.9721 6.46784 11.1552 6.54366 11.2901 6.67863C11.4251 6.81359 11.5009 6.99663 11.5009 7.1875C11.5009 7.37837 11.4251 7.56141 11.2901 7.69637L8.20381 10.7812H16.5312Z" fill="#5AA1C9"/>
</g>
<defs>
<clipPath id="clip0_2_754">
<rect width="23" height="23" fill="white"/>
</clipPath>
</defs>
</svg>
