<svg width="19" height="20" viewBox="0 0 19 20" fill="none" xmlns="http://www.w3.org/2000/svg">
<path d="M18.2083 3.6H15.0417V1.6C15.0417 0.7175 14.3316 0 13.4583 0H5.54167C4.66836 0 3.95833 0.7175 3.95833 1.6V3.6H0.791667C0.353776 3.6 0 3.9575 0 4.4V5.2C0 5.31 0.0890625 5.4 0.197917 5.4H1.69219L2.30326 18.475C2.34284 19.3275 3.04049 20 3.88411 20H15.1159C15.962 20 16.6572 19.33 16.6967 18.475L17.3078 5.4H18.8021C18.9109 5.4 19 5.31 19 5.2V4.4C19 3.9575 18.6462 3.6 18.2083 3.6ZM13.2604 3.6H5.73958V1.8H13.2604V3.6Z" fill="#BBB7B7"/>
</svg>
