<svg width="22" height="21" viewBox="0 0 22 21" fill="none" xmlns="http://www.w3.org/2000/svg">
<path d="M4.02542 7.13232C3.07963 7.37032 2.25329 7.94548 1.70167 8.74977C1.15005 9.55405 0.911099 10.5321 1.02972 11.5001C1.14835 12.4681 1.61638 13.3595 2.34588 14.0068C3.07538 14.6541 4.01615 15.0127 4.99142 15.0153H5.99142M10.9914 10.0153V19.0153V10.0153ZM10.9914 10.0153L8.49142 12.0153L10.9914 10.0153ZM10.9914 10.0153L13.4914 12.0153L10.9914 10.0153Z" stroke="#5AA1C9" stroke-width="2" stroke-linecap="round" stroke-linejoin="round"/>
<path d="M14.8214 5.15334C14.4796 3.79992 13.636 2.62708 12.4615 1.8726C11.287 1.11812 9.86964 0.838434 8.49663 1.09025C7.12361 1.34206 5.89771 2.10653 5.06743 3.22868C4.23716 4.35084 3.86463 5.74671 4.02537 7.13334C4.02537 7.13334 4.17837 8.01534 4.49137 8.51534" stroke="#5AA1C9" stroke-width="2" stroke-linecap="round" stroke-linejoin="round"/>
<path d="M15.9915 15.0154C16.6975 15.0149 17.3954 14.8649 18.0393 14.5752C18.6832 14.2856 19.2584 13.8628 19.7272 13.3349C20.1959 12.8069 20.5475 12.1856 20.7588 11.5119C20.9702 10.8382 21.0364 10.1274 20.9532 9.42633C20.8701 8.7252 20.6393 8.04965 20.2762 7.44412C19.9132 6.83859 19.426 6.31683 18.8467 5.91317C18.2674 5.5095 17.6092 5.2331 16.9155 5.10214C16.2217 4.97118 15.508 4.98865 14.8215 5.15338L13.4915 5.51538" stroke="#5AA1C9" stroke-width="2" stroke-linecap="round" stroke-linejoin="round"/>
</svg>
