<svg width="23" height="26" viewBox="0 0 23 26" fill="none" xmlns="http://www.w3.org/2000/svg">
<path d="M2.54462 1.00001C2.34167 0.999438 2.14061 1.03898 1.95299 1.11637C1.76538 1.19375 1.5949 1.30745 1.45136 1.45093C1.30783 1.59441 1.19406 1.76484 1.1166 1.95242C1.03914 2.14001 0.999519 2.34106 1.00001 2.54401V17.5994C0.999438 17.8023 1.03898 18.0034 1.11637 18.191C1.19375 18.3786 1.30745 18.5491 1.45093 18.6926C1.59441 18.8362 1.76484 18.9499 1.95242 19.0274C2.14001 19.1049 2.34106 19.1445 2.54401 19.144H9.20308V23.456C9.20259 23.6589 9.2422 23.8599 9.31962 24.0474C9.39704 24.235 9.51075 24.4054 9.65422 24.5489C9.79769 24.6923 9.96809 24.806 10.1556 24.8835C10.3432 24.9609 10.5442 25.0005 10.7471 25H20.0591C20.262 25.0004 20.4629 24.9607 20.6504 24.8833C20.8379 24.8058 21.0083 24.6921 21.1518 24.5487C21.2952 24.4052 21.4089 24.2349 21.4864 24.0473C21.5638 23.8598 21.6035 23.6589 21.6031 23.456V8.4C21.6035 8.19711 21.5638 7.99613 21.4863 7.80861C21.4088 7.6211 21.295 7.45074 21.1515 7.30732C21.008 7.16391 20.8375 7.05027 20.6499 6.97292C20.4624 6.89558 20.2614 6.85605 20.0585 6.85662H13.4037V2.54401C13.4041 2.34108 13.3644 2.14007 13.2869 1.95252C13.2094 1.76497 13.0957 1.59457 12.9522 1.45111C12.8086 1.30765 12.6382 1.19395 12.4506 1.11653C12.263 1.03912 12.062 0.999519 11.8591 1.00001H2.54462Z" stroke="#5AA1C9" stroke-linecap="round" stroke-linejoin="round"/>
<path d="M9.20255 19.1434L9.20194 8.40003C9.20145 8.19713 9.24106 7.99614 9.31848 7.80859C9.3959 7.62104 9.50961 7.45064 9.65308 7.30717C9.79655 7.1637 9.96695 7.04999 10.1545 6.97257C10.342 6.89515 10.543 6.85554 10.7459 6.85603H13.4026M12.0893 22.1619L18.3552 22.1286M4.67517 5.75757L15.2062 17.6013M15.2062 17.6013L15.5342 13.9268M15.2062 17.6013L11.6961 17.9619" stroke="#5AA1C9" stroke-linecap="round" stroke-linejoin="round"/>
</svg>
