<svg width="30" height="30" viewBox="0 0 30 30" fill="none" xmlns="http://www.w3.org/2000/svg">
<path d="M18.1816 5.69824C17.7129 5.49316 17.1562 5.71289 16.9512 6.19629L14.9883 10.7812C13.6992 10.7988 12.6562 11.8359 12.6562 13.125C12.6562 14.4211 13.7039 15.4688 15 15.4688C16.2961 15.4688 17.3438 14.4199 17.3438 13.125C17.3438 12.5098 17.0947 11.9531 16.6992 11.5359L18.6768 6.92871C18.8848 6.45117 18.6562 5.90625 18.1816 5.69824ZM26.25 3.75H22.9553C21.0645 1.45957 18.2051 0 15 0C11.7949 0 8.93555 1.45957 7.04297 3.75H3.75C1.68457 3.75 0 5.43457 0 7.5V26.25C0 28.3154 1.68457 30 3.75 30H26.25C28.3154 30 30 28.3154 30 26.25V7.5C30 5.43457 28.3184 3.75 26.25 3.75ZM15 17.8125C10.8645 17.8125 7.5 14.448 7.5 10.3125C7.5 6.17695 10.8645 2.8125 15 2.8125C19.1355 2.8125 22.5 6.17695 22.5 10.3125C22.5 14.448 19.1367 17.8125 15 17.8125Z" fill="#5AA1C9"/>
</svg>
