<svg width="211" height="241" viewBox="0 0 211 241" fill="none" xmlns="http://www.w3.org/2000/svg">
<rect y="16" width="100" height="100" fill="#D9D9D9"/>
<rect x="111" y="16" width="100" height="100" fill="#D9D9D9"/>
<rect y="16" width="100" height="100" fill="#5AA1C9"/>
<rect x="111" y="16" width="100" height="100" fill="#DEEAF2"/>
<rect y="130" width="100" height="100" fill="#DEEAF2"/>
<rect x="111" y="130" width="100" height="100" fill="#5AA1C9"/>
<path d="M61.6 35.7V105H46.4V53.9L35.5 61.9V45.4L48.6 35.7H61.6Z" fill="white"/>
<path d="M156 148.2C170.467 148.2 177.7 153.8 177.7 165V170.9C177.7 177.367 175.233 182.433 170.3 186.1L161.3 193.7C158.767 195.833 157.2 197.433 156.6 198.5C156.067 199.567 155.8 201.233 155.8 203.5V204.8H176.8V218H140.5V201.7C140.5 195.1 143.267 189.667 148.8 185.4L158.8 176.8C160.267 175.667 161.233 174.533 161.7 173.4C162.233 172.2 162.5 170.5 162.5 168.3V166.9C162.5 165.367 162 164.2 161 163.4C160.067 162.533 158.333 162.1 155.8 162.1C150.733 162.1 146.1 163 141.9 164.8V150.4C145.9 148.933 150.6 148.2 156 148.2Z" fill="white"/>
<path d="M175.023 54.334L169.119 43.3079L157.547 39.4507L157.52 39.533L139.536 44.6715C138.264 45.0392 137.145 45.8094 136.347 46.8666C135.55 47.9238 135.116 49.2111 135.112 50.5353V66.5313H141.211V50.5355L155.238 46.528L149.042 65.5162L149.012 65.5056L143.397 81.2286C143.125 81.9771 142.573 82.5905 141.857 82.939C141.141 83.2876 140.318 83.344 139.561 83.0963L126.929 78.885L125 84.6707L137.632 88.8813C139.902 89.6376 142.377 89.4748 144.528 88.4277C146.679 87.3807 148.334 85.5327 149.139 83.2799L153.757 70.349L157.03 71.4163L166.235 80.6214C166.52 80.904 166.745 81.2403 166.899 81.6107C167.053 81.9811 167.131 82.3784 167.13 82.7794V103.123H173.229V82.7794C173.232 81.5776 172.997 80.387 172.537 79.2767C172.077 78.1663 171.401 77.1582 170.549 76.3106L161.351 67.1124L166.455 51.4699L170.128 58.0799C170.524 58.7928 171.104 59.3868 171.806 59.8005C172.509 60.2141 173.31 60.4324 174.126 60.4327H190V54.334H175.023Z" fill="black"/>
<path d="M162.333 37.1258C163.531 38.1268 165.034 38.6893 166.595 38.7206C168.156 38.7518 169.681 38.2498 170.918 37.2976C172.155 36.3453 173.03 34.9997 173.399 33.4828C173.768 31.966 173.609 30.3686 172.947 28.9546C172.286 27.5405 171.162 26.3942 169.762 25.7049C168.361 25.0157 166.767 24.8247 165.243 25.1636C163.719 25.5024 162.356 26.3508 161.38 27.5687C160.403 28.7865 159.871 30.301 159.871 31.8621C159.87 32.8664 160.089 33.8588 160.515 34.7686C160.94 35.6784 161.561 36.4832 162.333 37.1258V37.1258Z" fill="black"/>
<path d="M50.4811 185.215C54.435 185.215 57.6402 182.01 57.6402 178.056C57.6402 174.102 54.435 170.897 50.4811 170.897C46.5273 170.897 43.322 174.102 43.322 178.056C43.322 182.01 46.5273 185.215 50.4811 185.215Z" fill="black"/>
<path d="M79.2162 148V159.136H21.9435V148H8V176.636H21.9435V165.5H26.9704L28.4666 183.455L44.2166 191.33V211.636V214.916V218H56.9435V211.636V191.33L72.6935 183.455L74.1893 165.5H79.2162V176.636H92.8436V163.442V148H79.2162ZM17.9398 159.136V170.273H12.398V154.364H17.9398V159.136ZM66.648 179.363L50.5799 187.397L34.5117 179.363L33.3561 165.5H67.8036L66.648 179.363ZM88.7617 170.273H83.7913V154.364H88.7617V170.273Z" fill="black"/>
<rect y="16" width="100" height="100" fill="#D9D9D9"/>
<rect x="111" y="16" width="100" height="100" fill="#D9D9D9"/>
<rect y="16" width="100" height="100" fill="#5AA1C9"/>
<rect x="111" y="16" width="100" height="100" fill="#DEEAF2"/>
<rect y="130" width="100" height="100" fill="#DEEAF2"/>
<rect x="111" y="130" width="100" height="100" fill="#5AA1C9"/>
<path d="M61.6 35.7V105H46.4V53.9L35.5 61.9V45.4L48.6 35.7H61.6Z" fill="white"/>
<path d="M156 148.2C170.467 148.2 177.7 153.8 177.7 165V170.9C177.7 177.367 175.233 182.433 170.3 186.1L161.3 193.7C158.767 195.833 157.2 197.433 156.6 198.5C156.067 199.567 155.8 201.233 155.8 203.5V204.8H176.8V218H140.5V201.7C140.5 195.1 143.267 189.667 148.8 185.4L158.8 176.8C160.267 175.667 161.233 174.533 161.7 173.4C162.233 172.2 162.5 170.5 162.5 168.3V166.9C162.5 165.367 162 164.2 161 163.4C160.067 162.533 158.333 162.1 155.8 162.1C150.733 162.1 146.1 163 141.9 164.8V150.4C145.9 148.933 150.6 148.2 156 148.2Z" fill="white"/>
<path d="M175.023 54.334L169.119 43.3079L157.547 39.4507L157.52 39.533L139.536 44.6715C138.264 45.0392 137.145 45.8094 136.347 46.8666C135.55 47.9238 135.116 49.2111 135.112 50.5353V66.5313H141.211V50.5355L155.238 46.528L149.042 65.5162L149.012 65.5056L143.397 81.2286C143.125 81.9771 142.573 82.5905 141.857 82.939C141.141 83.2876 140.318 83.344 139.561 83.0963L126.929 78.885L125 84.6707L137.632 88.8813C139.902 89.6376 142.377 89.4748 144.528 88.4277C146.679 87.3807 148.334 85.5327 149.139 83.2799L153.757 70.349L157.03 71.4163L166.235 80.6214C166.52 80.904 166.745 81.2403 166.899 81.6107C167.053 81.9811 167.131 82.3784 167.13 82.7794V103.123H173.229V82.7794C173.232 81.5776 172.997 80.387 172.537 79.2767C172.077 78.1663 171.401 77.1582 170.549 76.3106L161.351 67.1124L166.455 51.4699L170.128 58.0799C170.524 58.7928 171.104 59.3868 171.806 59.8005C172.509 60.2141 173.31 60.4324 174.126 60.4327H190V54.334H175.023Z" fill="black"/>
<path d="M162.333 37.1258C163.531 38.1268 165.034 38.6893 166.595 38.7206C168.156 38.7518 169.681 38.2498 170.918 37.2976C172.155 36.3453 173.03 34.9997 173.399 33.4828C173.768 31.966 173.609 30.3686 172.947 28.9546C172.286 27.5405 171.162 26.3942 169.762 25.7049C168.361 25.0157 166.767 24.8247 165.243 25.1636C163.719 25.5024 162.356 26.3508 161.38 27.5687C160.403 28.7865 159.871 30.301 159.871 31.8621C159.87 32.8664 160.089 33.8588 160.515 34.7686C160.94 35.6784 161.561 36.4832 162.333 37.1258V37.1258Z" fill="black"/>
<path d="M50.4811 185.215C54.435 185.215 57.6402 182.01 57.6402 178.056C57.6402 174.102 54.435 170.897 50.4811 170.897C46.5273 170.897 43.322 174.102 43.322 178.056C43.322 182.01 46.5273 185.215 50.4811 185.215Z" fill="black"/>
<path d="M79.2162 148V159.136H21.9435V148H8V176.636H21.9435V165.5H26.9704L28.4666 183.455L44.2166 191.33V211.636V214.916V218H56.9435V211.636V191.33L72.6935 183.455L74.1893 165.5H79.2162V176.636H92.8436V163.442V148H79.2162ZM17.9398 159.136V170.273H12.398V154.364H17.9398V159.136ZM66.648 179.363L50.5799 187.397L34.5117 179.363L33.3561 165.5H67.8036L66.648 179.363ZM88.7617 170.273H83.7913V154.364H88.7617V170.273Z" fill="black"/>
</svg>
