<svg width="29" height="29" viewBox="0 0 29 29" fill="none" xmlns="http://www.w3.org/2000/svg">
<g clip-path="url(#clip0_2_706)">
<path d="M24.4688 21.2516C24.4688 26.7344 20.0281 26.7344 14.5 26.7344C8.97188 26.7344 4.53125 26.7344 4.53125 21.2516C4.53125 15.7688 9.01719 6.79688 14.5 6.79688C19.9828 6.79688 24.4688 15.7234 24.4688 21.2516Z" fill="#DBB471"/>
<path opacity="0.5" d="M24.4688 21.2516C24.4688 19.3938 23.9703 17.1281 23.0641 14.9531C23.2453 16.3578 22.8828 18.85 18.5781 19.8016C12.461 21.1156 15.6328 22.8375 13.2313 23.0641C11.1922 23.2453 5.75471 22.4297 4.66721 19.3484C4.57659 20.0281 4.48596 20.6625 4.48596 21.2969C4.53127 26.7344 9.01721 26.7344 14.5 26.7344C19.9828 26.7344 24.4688 26.7344 24.4688 21.2516Z" fill="#89664C"/>
<path d="M17.1735 18.6234C16.9922 17.7171 16.2219 17.4453 15.4063 17.4V16.1312C15.6328 16.2218 15.9047 16.3578 16.0859 16.4937C16.4484 16.7203 16.8109 16.1312 16.4484 15.9046C16.1313 15.7234 15.7688 15.5421 15.4063 15.4062V13.9109C15.4063 13.4578 14.7266 13.4578 14.7266 13.9109V15.225C14.3641 15.1796 14.0016 15.1796 13.6391 15.225C13.5938 14.9078 13.5031 14.5906 13.4125 14.2734C13.3219 13.8203 12.6422 14.0015 12.7781 14.4546C12.8688 14.7718 12.9141 15.089 13.0047 15.4062C12.9594 15.4062 12.9594 15.4062 12.9141 15.4515C12.0078 15.814 11.4188 16.7203 12.0985 17.5812C12.4156 17.989 12.8234 18.125 13.2766 18.2156C13.3219 18.8046 13.3219 19.3937 13.3219 19.9828C13.0047 19.8015 12.7328 19.5296 12.5063 19.3031C12.1891 18.9859 11.7359 19.4843 12.0078 19.8015C12.4156 20.2546 12.8688 20.5718 13.3219 20.7984C13.3219 21.2968 13.3672 21.7953 13.4125 22.2937C13.4578 22.7468 14.1375 22.7468 14.0922 22.2937C14.0469 21.8406 14.0016 21.4328 14.0016 20.9796C14.2734 21.025 14.5453 21.025 14.8172 21.025C14.8625 21.4781 14.9078 21.9312 14.9531 22.4296C14.9984 22.8828 15.6781 22.8828 15.6328 22.4296C15.5875 21.9312 15.5422 21.4328 15.4969 20.889C16.4938 20.5265 17.4 19.7562 17.1735 18.6234ZM14.7266 15.9046V17.4C14.5 17.4 14.3188 17.4453 14.1375 17.4453H13.911L13.775 15.814C14.0922 15.814 14.4094 15.8593 14.7266 15.9046ZM13.0953 17.3546C12.9141 17.3093 12.7328 17.1734 12.5516 17.0374C12.1438 16.6296 12.7328 16.2671 13.0953 16.0859C13.1406 16.539 13.186 16.9468 13.2313 17.4C13.186 17.4 13.1406 17.4 13.0953 17.3546ZM14.5906 20.2546C14.3641 20.3 14.1828 20.2546 14.0016 20.2093C13.9563 19.5296 13.9563 18.85 13.9563 18.125C14.2281 18.125 14.5 18.0796 14.7719 18.0796C14.7719 18.8046 14.8172 19.4843 14.8172 20.2093C14.7266 20.2546 14.6813 20.2546 14.5906 20.2546ZM16.0859 19.7562C15.9047 19.8921 15.6781 19.9828 15.4969 20.0734C15.4516 19.3937 15.4516 18.7593 15.4516 18.0796H15.6781C16.5391 18.2609 16.7656 19.2124 16.0859 19.7562Z" fill="#89664C"/>
<path d="M15.4062 24.9219H14.364V26.7344L18.5781 29L28.0937 26.0547V24.4688L24.6046 22.4297L15.4062 24.9219Z" fill="#699635"/>
<path d="M14.5 23.8797C14.5 23.8797 15.5875 25.6469 18.6688 27.1875C18.6688 27.1875 23.4719 26.9609 28.0938 23.8797C28.0938 23.8797 25.4203 22.5656 24.65 20.8438C24.65 20.8438 22.8375 23.3813 14.5 23.8797Z" fill="#83BF4F"/>
<path d="M12.4609 24.8766L13.4578 24.8313L13.5937 26.5079L9.65154 29L0.181226 26.961L0.0452881 25.4657L3.26248 23.2454L12.4609 24.8766Z" fill="#699635"/>
<path d="M13.2313 23.8344C13.2313 23.8344 12.2797 25.6016 9.425 27.2781C9.425 27.2781 4.75781 27.4141 0 24.9219C0 24.9219 2.5375 23.4719 3.12656 21.75C3.12656 21.75 5.12031 24.0156 13.2313 23.8344Z" fill="#83BF4F"/>
<path d="M10.9657 24.3329C10.9657 24.3329 10.8297 24.6954 11.4641 24.7407L9.78755 26.1454C9.78755 26.1454 8.79067 26.0547 8.56411 26.7344C8.56411 26.7344 4.48599 26.2813 1.85786 25.1032C1.85786 25.1032 2.40161 24.6954 1.72192 24.4235C1.72192 24.4235 2.49224 23.8797 2.67349 23.3813C2.67349 23.3813 3.39849 23.4719 3.62505 22.9282C3.71567 22.8829 6.43442 24.5141 10.9657 24.3329V24.3329Z" stroke="#699635" stroke-miterlimit="10"/>
<path d="M3.98752 24.9672C4.46301 24.9672 4.84846 24.7035 4.84846 24.3781C4.84846 24.0528 4.46301 23.7891 3.98752 23.7891C3.51204 23.7891 3.12659 24.0528 3.12659 24.3781C3.12659 24.7035 3.51204 24.9672 3.98752 24.9672Z" fill="#699635"/>
<path d="M8.60942 23.6531C8.60942 23.6531 7.56724 25.0125 5.30161 26.8703L5.43755 28.0938L3.85161 27.7313L3.76099 26.4172C3.76099 26.4172 6.07192 24.2875 6.57036 23.2453C6.52505 23.2453 7.34067 23.5172 8.60942 23.6531ZM19.0766 23.336C19.0766 23.336 19.4844 24.4235 22.5657 26.4172V27.7313L24.3329 27.1875V25.8281C24.3329 25.8281 22.2032 24.3328 20.9344 22.8375L19.0766 23.336Z" fill="#F9F3D9"/>
<path d="M16.4938 21.8859L15.4969 21.8406L15.4062 23.6984L19.4391 26.2812L28.9094 23.6984L28.9547 22.0672L25.6469 19.7562L16.4938 21.8859Z" fill="#699635"/>
<path d="M15.6781 20.7531C15.6781 20.7531 16.675 22.6562 19.6203 24.3781C19.6203 24.3781 24.3328 24.3781 29 21.4781C29 21.4781 26.4172 19.9828 25.7828 18.125C25.7828 18.125 23.8344 20.6625 15.6781 20.7531Z" fill="#83BF4F"/>
<path d="M17.7172 21.2515C17.7172 21.2515 17.9438 21.614 17.2188 21.75L19.1219 23.2453C19.1219 23.2453 20.2094 22.9734 20.5719 23.6078C20.5719 23.6078 25.1031 22.7922 27.1875 21.7047C27.1875 21.7047 26.5078 21.3875 27.1875 20.9797C27.1875 20.9797 26.3719 20.3 26.0547 19.8469C26.0547 19.8469 25.2844 20.0734 24.8766 19.5297C24.8766 19.575 23.2453 21.025 17.7172 21.2515V21.2515Z" stroke="#699635" stroke-miterlimit="10"/>
<path d="M21.2063 22.3844C21.025 22.611 20.436 22.7016 19.9375 22.5657C19.4391 22.4297 19.2125 22.1126 19.3938 21.886C19.575 21.6594 20.1641 21.5688 20.6625 21.7047C21.161 21.8407 21.3875 22.1126 21.2063 22.3844Z" fill="#699635"/>
<path d="M20.3 20.3906C20.3 20.3906 21.3875 21.8406 23.6985 23.7891L23.6532 25.1485L25.2391 24.6953L25.2844 23.2453C25.2844 23.2453 22.9282 20.9797 22.3391 19.8922C22.3844 19.8922 21.6141 20.2094 20.3 20.3906Z" fill="#F9F3D9"/>
<path d="M20.8438 0.90625C20.8438 3.67031 17.2641 8.15625 14.5 8.15625C11.7359 8.15625 8.15625 4.12344 8.15625 1.35938C8.15625 -1.40469 8.56406 1.35938 11.3281 1.35938C11.7359 1.35938 13.6391 0 14.5 0C15.0891 0 16.7656 1.35938 17.6719 1.35938C20.0734 1.35938 20.8438 -1.17812 20.8438 0.90625Z" fill="#DBB471"/>
<path d="M13.6844 6.02652C13.4125 6.20777 12.0984 6.07184 11.6906 6.38902C11.1469 6.79684 11.9172 7.7484 11.3734 8.33746C10.2859 9.42496 9.42499 10.6484 9.69687 11.3281C10.15 12.5062 11.0109 9.15308 11.7812 10.4218C12.5516 11.6906 12.4156 9.5609 13.5937 10.6484C14.7719 11.7359 13.775 8.69996 14.9078 10.014C16.0406 11.3281 16.0859 12.8234 16.9016 12.8234C17.8531 12.8234 15.9047 9.24371 17.1734 10.1046C18.4422 10.9656 19.8469 10.6484 18.5781 9.33434C18.1703 8.92652 17.6266 8.20152 16.9922 7.56715C16.7656 7.34059 16.9469 6.16246 16.7203 5.98121C16.4484 5.75465 15.7687 6.47965 15.4969 6.34371C14.9531 6.07183 15.1344 6.57027 14.3187 6.70621C13.775 6.88746 14.2281 5.66402 13.6844 6.02652Z" fill="#89664C"/>
<path d="M8.47339 8.70004C10.2406 7.02348 13.4578 7.97504 15.3609 8.79066C17.2187 9.60629 18.3515 7.02348 17.1734 5.70941C16.4937 4.9391 15.4062 5.84535 14.9984 6.3891C14.5453 6.93285 14.1828 7.52191 13.6843 8.06566C12.9593 8.88129 11.1921 8.2016 11.7359 7.06879C12.3249 5.89066 14.8171 7.25004 15.6328 7.4766C17.2187 7.92973 18.8953 8.11098 20.4812 7.52191C21.025 7.34066 20.7984 6.43441 20.2546 6.66098C18.4874 7.29535 16.7203 6.88754 15.0437 6.34379C14.1828 6.07191 12.8234 5.34691 11.9171 5.75473C9.33432 6.97816 11.7359 10.4672 13.9109 9.10785C14.4093 8.79066 14.7265 8.29222 15.089 7.8391C15.3156 7.56722 16.4484 5.84535 16.7203 6.70629C16.8562 7.15941 16.7203 7.97504 16.2218 8.11098C15.9046 8.24691 15.2703 7.79379 14.9531 7.70316C14.364 7.4766 13.7749 7.29535 13.1406 7.15941C11.464 6.79691 9.19839 6.88754 7.88432 8.11098C7.4312 8.47347 8.06557 9.10785 8.47339 8.70004Z" fill="#E8E8E8"/>
<path d="M20.3 0.226562C19.8469 0.589063 19.0312 1.35938 17.6719 1.35938C16.7656 1.35938 15.0891 0 14.5 0C13.6391 0 11.7359 1.35938 11.3281 1.35938C9.83281 1.35938 9.01719 0.589063 8.60938 0.271875C8.60938 0.271875 9.10781 2.31094 10.6484 3.35313C11.7812 4.07812 11.6453 3.21719 12.2344 2.40156C12.8234 1.58594 13.2312 1.17812 14.2734 3.21719C14.8172 4.35 15.8594 0.135937 16.675 1.49531C18.1703 3.9875 18.7141 2.62813 20.3 0.226562Z" fill="#89664C"/>
<path d="M23.7438 23.7437L23.6984 25.1031L25.2844 24.65L25.3297 23.2C25.3297 23.2453 24.3781 23.6078 23.7438 23.7437ZM22.5656 26.4625V27.7765L24.3328 27.2328V25.8734C24.2875 25.8281 23.8344 26.1 22.5656 26.4625ZM5.30157 26.825L5.43751 28.0937L3.85157 27.7312L3.76095 26.4171C3.71563 26.4171 4.35001 26.6437 5.30157 26.825Z" fill="#DBB471"/>
</g>
<defs>
<clipPath id="clip0_2_706">
<rect width="29" height="29" fill="white"/>
</clipPath>
</defs>
</svg>
