<svg width="11" height="14" viewBox="0 0 11 14" fill="none" xmlns="http://www.w3.org/2000/svg">
<path d="M10.0028 11.9615H0.669469C0.492658 11.9615 0.323088 12.0317 0.198064 12.1568C0.07304 12.2818 0.00280197 12.4514 0.00280197 12.6282C0.00280197 12.805 0.07304 12.9745 0.198064 13.0996C0.323088 13.2246 0.492658 13.2948 0.669469 13.2948H10.0028C10.1796 13.2948 10.3492 13.2246 10.4742 13.0996C10.5992 12.9745 10.6695 12.805 10.6695 12.6282C10.6695 12.4514 10.5992 12.2818 10.4742 12.1568C10.3492 12.0317 10.1796 11.9615 10.0028 11.9615ZM0.669469 10.6282H0.729469L3.50947 10.3748C3.814 10.3445 4.09883 10.2103 4.31614 9.99483L10.3161 3.99483C10.549 3.74881 10.6749 3.4205 10.6661 3.08185C10.6574 2.7432 10.5147 2.42183 10.2695 2.18816L8.4428 0.361494C8.2044 0.137558 7.89199 0.00906636 7.56502 0.000461838C7.23805 -0.00814269 6.91932 0.10374 6.66947 0.314827L0.669469 6.31483C0.453979 6.53214 0.319805 6.81696 0.289469 7.12149L0.00280197 9.90149C-0.00617872 9.99914 0.00649152 10.0976 0.0399094 10.1898C0.0733273 10.2819 0.12667 10.3656 0.196135 10.4348C0.258429 10.4966 0.332306 10.5455 0.413531 10.5787C0.494756 10.6119 0.581731 10.6287 0.669469 10.6282ZM7.51614 1.29483L9.33614 3.11483L8.0028 4.41483L6.21614 2.62816L7.51614 1.29483Z" fill="#5AA1C9"/>
</svg>
