<svg width="29" height="29" viewBox="0 0 29 29" fill="none" xmlns="http://www.w3.org/2000/svg">
<path d="M9.66667 19.3333C15.0054 19.3333 19.3333 15.0054 19.3333 9.66667C19.3333 4.32791 15.0054 0 9.66667 0C4.32791 0 0 4.32791 0 9.66667C0 15.0054 4.32791 19.3333 9.66667 19.3333Z" fill="#00ACC1"/>
<path d="M10.3572 17.9524C14.5519 17.9524 17.9524 14.5519 17.9524 10.3572C17.9524 6.16247 14.5519 2.76196 10.3572 2.76196C6.16247 2.76196 2.76196 6.16247 2.76196 10.3572C2.76196 14.5519 6.16247 17.9524 10.3572 17.9524Z" fill="#EEEEEE"/>
<path d="M13.8095 12.7285L12.7287 13.8095L9.66663 10.7476L10.7474 9.66663L13.8095 12.7285Z" fill="black"/>
<path d="M5.72668 26.9341L16.044 10.338C16.6172 9.44282 17.9785 9.44282 18.48 10.338L28.7974 26.9341C29.3705 27.8293 28.6541 29 27.5793 29H6.9447C5.86998 29 5.1535 27.8293 5.72668 26.9341Z" fill="#FFC107"/>
<path d="M16.5714 25.2311C16.5714 25.0969 16.5714 24.9626 16.616 24.8284C16.6605 24.6941 16.7051 24.627 16.7496 24.4927C16.7941 24.3584 16.8832 24.3584 16.9723 24.2913C17.0614 24.2242 17.1505 24.2242 17.2396 24.2242C17.3287 24.2242 17.4623 24.2242 17.5514 24.2913C17.6405 24.3584 17.7296 24.4256 17.7742 24.4927C17.8187 24.5598 17.8633 24.6941 17.9078 24.8284C17.9524 24.9626 17.9524 25.0969 17.9524 25.2311C17.9524 25.3654 17.9524 25.4997 17.9078 25.6339C17.8633 25.7682 17.8187 25.8353 17.7742 25.9696C17.7296 26.1038 17.6405 26.1038 17.5514 26.1709C17.4623 26.2381 17.3733 26.2381 17.2396 26.2381C17.106 26.2381 17.0169 26.2381 16.9723 26.1709C16.9278 26.1038 16.7941 26.0367 16.7496 25.9696C16.7051 25.9024 16.6605 25.7682 16.616 25.6339C16.5714 25.4997 16.5714 25.3654 16.5714 25.2311ZM17.8187 23.1501H16.7941L16.616 16.5714H17.9524L17.8187 23.1501Z" fill="#263238"/>
<path d="M9.66667 19.3333C15.0054 19.3333 19.3333 15.0054 19.3333 9.66667C19.3333 4.32791 15.0054 0 9.66667 0C4.32791 0 0 4.32791 0 9.66667C0 15.0054 4.32791 19.3333 9.66667 19.3333Z" fill="#00ACC1"/>
<path d="M10.3572 17.9524C14.5519 17.9524 17.9524 14.5519 17.9524 10.3572C17.9524 6.16247 14.5519 2.76196 10.3572 2.76196C6.16247 2.76196 2.76196 6.16247 2.76196 10.3572C2.76196 14.5519 6.16247 17.9524 10.3572 17.9524Z" fill="#EEEEEE"/>
<path d="M13.8095 12.7285L12.7287 13.8095L9.66663 10.7476L10.7474 9.66663L13.8095 12.7285Z" fill="black"/>
<path d="M5.72668 26.9341L16.044 10.338C16.6172 9.44282 17.9785 9.44282 18.48 10.338L28.7974 26.9341C29.3705 27.8293 28.6541 29 27.5793 29H6.9447C5.86998 29 5.1535 27.8293 5.72668 26.9341Z" fill="#FFC107"/>
<path d="M16.5714 25.2311C16.5714 25.0969 16.5714 24.9626 16.616 24.8284C16.6605 24.6941 16.7051 24.627 16.7496 24.4927C16.7941 24.3584 16.8832 24.3584 16.9723 24.2913C17.0614 24.2242 17.1505 24.2242 17.2396 24.2242C17.3287 24.2242 17.4623 24.2242 17.5514 24.2913C17.6405 24.3584 17.7296 24.4256 17.7742 24.4927C17.8187 24.5598 17.8633 24.6941 17.9078 24.8284C17.9524 24.9626 17.9524 25.0969 17.9524 25.2311C17.9524 25.3654 17.9524 25.4997 17.9078 25.6339C17.8633 25.7682 17.8187 25.8353 17.7742 25.9696C17.7296 26.1038 17.6405 26.1038 17.5514 26.1709C17.4623 26.2381 17.3733 26.2381 17.2396 26.2381C17.106 26.2381 17.0169 26.2381 16.9723 26.1709C16.9278 26.1038 16.7941 26.0367 16.7496 25.9696C16.7051 25.9024 16.6605 25.7682 16.616 25.6339C16.5714 25.4997 16.5714 25.3654 16.5714 25.2311ZM17.8187 23.1501H16.7941L16.616 16.5714H17.9524L17.8187 23.1501Z" fill="#263238"/>
</svg>
