<svg width="25" height="26" viewBox="0 0 25 26" fill="none" xmlns="http://www.w3.org/2000/svg">
<path d="M12.7386 5.27498C11.433 5.27498 10.3861 6.25954 10.3861 7.48748C10.3861 8.71541 11.433 9.69998 12.7386 9.69998C14.0443 9.69998 15.0912 8.71541 15.0912 7.48748C15.0912 6.25954 14.0443 5.27498 12.7386 5.27498ZM24.5014 0.849976V6.38123H22.1488V4.16873H3.32844V6.38123H0.975891V0.849976H3.32844V3.06248H22.1488V0.849976H24.5014ZM16.2674 12.2001V25.1875H13.9149V19.6562H11.5624V25.1875H9.2098V12.2001C6.77492 10.9943 5.09285 8.59373 5.09285 5.8281V5.27498H7.44539V5.8281C7.44539 8.59373 9.79794 10.8062 12.7386 10.8062C15.6793 10.8062 18.0319 8.59373 18.0319 5.8281V5.27498H20.3844V5.8281C20.3844 8.59373 18.7023 10.9943 16.2674 12.2001Z" fill="#C2BDC6"/>
</svg>
